<svg width="92" height="45" viewBox="0 0 92 45" xmlns="http://www.w3.org/2000/svg">
<path d="M3.45968 27.3907C3.7258 27.3408 4.02519 27.3076 4.35784 27.3076C4.40774 25.5611 5.4057 22.6671 6.47018 19.6732C5.47223 19.5235 4.62396 19.5235 4.10835 19.8728C3.74244 18.4257 5.12294 18.143 7.01906 18.1763C8.00038 15.3986 8.94844 12.6875 9.14803 10.8745C7.56794 10.7747 6.1708 10.9411 5.28927 11.939C5.00651 12.2384 4.24141 8.46282 7.701 7.83078C10.5119 7.31517 16.4996 9.61047 18.3791 6.96588C18.6619 6.58333 18.8947 10.0429 17.0153 10.9743C15.8177 11.5565 14.2376 11.49 12.591 11.2904C12.3581 12.8871 11.4932 15.5317 10.5951 18.4091C12.5577 18.5422 14.2875 18.5255 14.6534 17.5941C15.2356 21.0703 12.7573 20.9539 9.9963 20.3884C9.2312 22.9498 8.51599 25.5445 8.24987 27.6568C10.6616 27.9396 13.0733 28.0394 14.1378 26.5258C14.4206 26.1433 14.6534 29.6029 12.7739 30.5177C9.48068 32.1476 3.40978 28.8211 1.04795 31.4823C0.765199 31.7817 9.88767e-05 28.0061 3.45968 27.3907ZM17.481 17.1617C17.4643 17.0951 21.1568 16.7625 21.0902 18.8915C21.0403 20.2553 17.8469 27.241 18.5122 29.4864C20.1422 27.4074 24.4833 17.1617 24.4833 17.1617C24.4667 17.0951 28.1591 16.7625 28.0759 18.8915C28.026 20.272 25.2318 25.8439 25.5145 29.5862C26.7952 28.239 28.3421 24.5299 28.6248 23.8313C28.6581 23.7648 28.7246 23.7316 28.7911 23.7316C28.9242 23.7316 29.0074 23.848 28.9741 23.9644C28.5749 25.1952 26.9117 30.2682 26.0468 30.7838C25.0488 31.3992 22.3377 30.368 22.0882 29.2369C21.6059 27.1412 23.635 22.1515 24.317 19.141C22.9864 22.6172 19.9093 30.4179 18.8448 30.8836C17.8635 31.2994 15.2023 30.4511 14.9861 29.1205C14.5869 26.7088 17.9966 19.0911 17.481 17.1617ZM24.8825 38.9171C24.2005 34.7257 30.5542 20.6213 29.8889 17.1284C29.8723 17.0619 33.7144 17.1284 33.4815 19.2407C33.2653 21.2533 30.4045 29.187 29.0573 35.0916C31.469 26.1433 36.1095 17.6773 36.8247 17.2615C37.4734 16.8789 39.4693 17.4444 40.2843 18.8748C41.382 20.8042 39.0535 30.1185 35.1947 30.9002C34.3298 31.0832 32.284 29.8025 31.8682 29.2868C30.4378 32.9626 29.1072 37.0709 28.4751 40.8631C28.392 41.2623 25.1652 40.6469 24.8825 38.9171ZM37.174 18.3093C36.9578 18.2262 34.3963 22.8667 32.0511 28.8045C35.1282 30.5343 37.9557 18.6253 37.174 18.3093ZM39.9516 28.9875C39.2697 24.7794 45.7065 10.1926 45.2741 7.08231C45.2574 7.01578 48.7835 7.19874 48.5507 9.31108C48.3178 11.49 44.9414 20.6712 43.8104 26.6589C45.4237 22.6671 48.2347 16.9621 49.848 17.1118C50.7794 17.1949 52.6589 18.0765 52.8253 18.642C53.291 20.2054 50.031 27.3408 49.9644 29.7027C51.2618 28.4552 52.8918 24.5465 53.1745 23.8313C53.2078 23.7648 53.2743 23.7316 53.3409 23.7316C53.4739 23.7316 53.5571 23.848 53.5238 23.9644C53.1246 25.1952 51.2951 30.8337 50.5632 30.9335C49.1162 31.1331 46.6712 30.0852 46.4716 28.7712C46.2221 26.9915 49.0663 21.22 49.349 18.4257C48.5174 18.2927 43.511 28.3055 43.5443 30.8836C43.6441 31.3493 40.251 30.7505 39.9516 28.9875ZM52.975 28.7546C51.9936 25.977 54.2224 19.0245 56.7339 17.4112C57.5988 16.8457 59.944 16.9953 60.6925 17.4943C61.3412 17.9101 60.9253 18.3093 60.9253 18.3093C58.2142 17.0452 55.0208 28.8211 56.2682 29.9688C57.7152 31.2994 61.1582 20.405 59.0791 19.9726C59.0791 19.9726 60.0438 18.6087 60.8754 18.7085C63.7529 19.0911 61.574 28.871 57.5489 30.7671C56.4512 31.2828 53.8399 31.183 52.975 28.7546ZM61.6904 29.1538C61.258 26.5092 64.5346 19.0578 64.0024 17.1284C63.9857 17.0619 67.8778 16.7625 67.8112 18.8915C67.7613 20.089 65.649 24.4468 65.2831 28.0228C66.5472 24.0975 69.4412 16.9454 71.2376 17.1118C72.169 17.1949 73.799 17.96 73.9653 18.5089C74.1815 19.2407 71.9528 22.7336 72.5515 24.8958C67.595 24.6796 70.8051 19.0744 70.7386 18.4257C69.9069 18.2927 65.4494 28.2057 65.466 30.8004C65.4827 30.9002 65.3662 30.9667 65.2831 30.9501C64.5679 30.8669 61.9067 30.4844 61.6904 29.1538ZM78.9218 16.8623C74.1649 16.2302 77.192 13.5524 76.9924 11.7893C82.1485 12.621 78.506 14.4007 78.9218 16.8623ZM72.5349 29.1538C72.0692 26.609 75.4955 19.0578 74.9799 17.1284C74.9633 17.0619 78.822 16.7625 78.7555 18.8915C78.7056 20.272 75.9446 25.7607 76.1774 29.5031C77.4415 28.0893 78.9385 24.5133 79.2212 23.8313C79.2378 23.7648 79.3044 23.7316 79.3875 23.7316C79.504 23.7316 79.5871 23.848 79.5539 23.9644C79.1713 25.1952 77.3584 30.5177 76.56 30.9002C75.745 31.2661 72.7511 30.4012 72.5349 29.1538ZM82.4812 30.8836C81.8824 31.2994 79.1879 30.5676 78.5725 29.4532C77.7742 28.0228 79.7701 20.7709 81.5997 18.4257C83.0301 16.6128 86.1237 17.0619 86.8556 17.4943C87.0385 17.5941 87.1051 17.6939 87.0053 17.9767C86.8888 18.2927 86.656 18.2262 86.2901 18.1264C84.4272 17.644 81.6329 27.8564 81.8159 29.9355L87.7537 17.2947C87.9533 16.7459 91.4794 17.6606 91.1468 18.3592C90.8141 19.0578 88.3858 27.3408 88.3192 29.7027C89.6166 28.4552 91.2632 24.5465 91.546 23.8313C91.5792 23.7648 91.6458 23.7316 91.7123 23.7316C91.8287 23.7316 91.9285 23.848 91.8786 23.9644C91.4961 25.1952 89.6665 30.8337 88.9347 30.9335C87.471 31.1331 85.026 30.0852 84.843 28.7712C84.6767 27.6568 85.5915 24.2139 86.4398 21.3864C84.9761 25.1786 82.8139 30.6507 82.4812 30.8836Z" fill="#3730A3"/>
<path d="M0.567383 33.626H22.9707" stroke="#3730A3" stroke-width="0.420324" stroke-miterlimit="10" stroke-linecap="round" stroke-linejoin="round"/>
<path d="M32.5532 33.626H91.6037" stroke="#3730A3" stroke-width="0.420324" stroke-miterlimit="10" stroke-linecap="round" stroke-linejoin="round"/>
<path d="M40.5176 41.2617C40.354 41.2617 40.1651 41.1972 39.9492 41.0689C39.7341 40.9398 39.5052 40.7693 39.264 40.5565C39.0228 40.3438 38.7855 40.1126 38.5512 39.8621C38.3177 39.6125 38.1018 39.3636 37.9052 39.1155C37.7086 38.8682 37.5434 38.6477 37.4098 38.4549L36.3298 40.7862C36.2775 40.8999 36.1961 40.9805 36.0847 41.0274C35.9733 41.0743 35.8527 41.1027 35.7229 41.1127C35.5931 41.1227 35.4648 41.1273 35.3389 41.1273C35.4349 40.989 35.534 40.83 35.6338 40.6518C35.7345 40.4736 35.8527 40.2585 35.9902 40.0058C36.1277 39.7531 36.2891 39.4466 36.4749 39.0848C36.6608 38.7238 36.8813 38.2913 37.1378 37.789C37.3936 37.2866 37.6963 36.6967 38.0458 36.0184C38.068 35.9785 38.098 35.9232 38.1349 35.8517C38.1717 35.7803 38.191 35.7142 38.191 35.6551C38.191 35.6005 38.1725 35.5575 38.1349 35.5253C38.098 35.493 38.0273 35.4769 37.9236 35.4769C37.7454 35.4769 37.5726 35.5253 37.4059 35.6213C37.2392 35.7173 37.0902 35.8402 36.9604 35.9892C36.8306 36.1375 36.7284 36.2911 36.6539 36.4493C36.5794 36.6076 36.5425 36.7489 36.5425 36.8726C36.5425 36.967 36.561 37.0508 36.5978 37.1253C36.3528 37.1253 36.18 37.0846 36.0801 37.0032C35.9795 36.9217 35.9296 36.8211 35.9296 36.702C35.9296 36.5338 36.0033 36.3656 36.1523 36.1974C36.3006 36.0292 36.4918 35.874 36.7261 35.7334C36.9604 35.5921 37.2054 35.4799 37.4612 35.3954C37.717 35.3117 37.949 35.2695 38.1572 35.2695C38.3576 35.2695 38.4928 35.3063 38.5635 35.3809C38.6342 35.4554 38.6695 35.5368 38.6695 35.6259C38.6695 35.6804 38.6603 35.735 38.6418 35.7895C38.6234 35.844 38.6027 35.8963 38.5804 35.9454L37.6448 37.9649C37.7485 37.8658 37.8845 37.7744 38.0512 37.6899C38.2178 37.6061 38.4022 37.5094 38.6027 37.4003C38.9368 37.2221 39.2948 37.0139 39.6773 36.7766C40.0598 36.5392 40.4255 36.2888 40.7742 36.0268C41.1229 35.7641 41.4125 35.5122 41.6429 35.2695C41.6798 35.2994 41.7059 35.3509 41.7213 35.4254C41.7359 35.4999 41.7436 35.5568 41.7436 35.5959C41.7436 35.7496 41.6491 35.9178 41.4594 36.1006C41.2696 36.2834 41.0231 36.4731 40.7189 36.6682C40.4147 36.8641 40.0806 37.0569 39.7165 37.2474C39.3524 37.4379 38.9944 37.6177 38.6418 37.7859C38.2893 37.9541 37.9713 38.1 37.6894 38.2237C37.9121 38.4764 38.1295 38.7161 38.3407 38.9442C38.552 39.1716 38.7824 39.3944 39.0313 39.6125C39.2802 39.8307 39.5713 40.0534 39.9054 40.2808C40.2396 40.5081 40.6444 40.7532 41.1191 41.0159C41.0668 41.0804 40.9854 41.1372 40.874 41.1864C40.7627 41.2371 40.6436 41.2617 40.5176 41.2617Z" fill="#3730A3"/>
<path d="M46.4763 40.9796C46.0231 40.9796 45.6874 40.8882 45.4685 40.7046C45.2496 40.5218 45.1397 40.3013 45.1397 40.044C44.8202 40.3259 44.453 40.5464 44.0374 40.7046C43.6219 40.8628 43.2017 40.9419 42.7792 40.9419C42.326 40.9419 41.9865 40.859 41.7599 40.6931C41.5333 40.5272 41.4204 40.3228 41.4204 40.0809C41.4204 39.8581 41.5041 39.6231 41.6708 39.3757C41.8383 39.1284 42.061 38.8956 42.3391 38.6775C42.6172 38.4601 42.9237 38.2827 43.2578 38.1467C43.5919 38.0107 43.9222 37.9424 44.2494 37.9424C44.42 37.9424 44.5782 37.9723 44.7226 38.0315C44.8678 38.0906 44.94 38.212 44.94 38.3956C44.94 38.5838 44.8563 38.7604 44.6896 38.9264C44.5229 39.0923 44.3032 39.2398 44.0328 39.368C43.7617 39.4971 43.4644 39.6016 43.1418 39.6837C42.8192 39.7659 42.4973 39.8159 42.1786 39.8358C42.164 39.8858 42.1524 39.9326 42.1448 39.9772C42.1371 40.0217 42.1332 40.064 42.1332 40.1031C42.1332 40.2022 42.1594 40.2998 42.2116 40.3966C42.2631 40.4934 42.3522 40.5725 42.4789 40.6339C42.6049 40.6961 42.7831 40.7269 43.0135 40.7269C43.4068 40.7269 43.797 40.6339 44.1834 40.4488C44.569 40.2629 44.907 40.034 45.1966 39.7621C45.2634 39.5593 45.3825 39.3565 45.553 39.153C45.7235 38.9502 45.9301 38.7658 46.1713 38.5999C46.4125 38.434 46.6745 38.3003 46.9564 38.1989C47.2383 38.0975 47.5248 38.0468 47.8144 38.0468C47.9849 38.0468 48.1431 38.0768 48.2875 38.136C48.4319 38.1951 48.5049 38.3165 48.5049 38.5C48.5049 38.7528 48.3766 38.974 48.1208 39.1645C47.8651 39.355 47.5363 39.5071 47.1353 39.6215C46.7344 39.7352 46.3226 39.8074 45.8994 39.8366C45.8848 39.8865 45.8733 39.9334 45.8656 39.9779C45.8579 40.0225 45.8541 40.0647 45.8541 40.1039C45.8541 40.203 45.8779 40.3044 45.9263 40.4081C45.9747 40.5118 46.0599 40.5971 46.1821 40.6639C46.305 40.7307 46.4809 40.7637 46.7113 40.7637C47.0309 40.7637 47.3496 40.7008 47.6692 40.5748C47.9887 40.4488 48.2852 40.2829 48.5602 40.077C48.8352 39.8719 49.0649 39.6499 49.2508 39.4126L49.3844 39.4794C49.1839 39.7767 48.9259 40.0379 48.6102 40.2629C48.2944 40.488 47.9534 40.6639 47.5855 40.7899C47.2168 40.9166 46.8473 40.9796 46.4763 40.9796ZM42.2331 39.6945C42.4336 39.6499 42.6602 39.5847 42.9121 39.4979C43.1648 39.4111 43.4076 39.3089 43.6419 39.1898C43.8761 39.0708 44.0689 38.9402 44.221 38.7965C44.3731 38.6529 44.4492 38.5024 44.4492 38.3434C44.4492 38.2888 44.4346 38.2466 44.4046 38.2174C44.3747 38.1874 44.3117 38.1728 44.2157 38.1728C44.0374 38.1728 43.8477 38.2189 43.6472 38.3103C43.4468 38.4017 43.2539 38.5216 43.0681 38.6706C42.8822 38.8188 42.7155 38.9824 42.5665 39.1606C42.4182 39.3381 42.3068 39.5163 42.2331 39.6945ZM45.9532 39.6945C46.1537 39.6499 46.3726 39.5908 46.6107 39.5163C46.8481 39.4418 47.0747 39.3542 47.2905 39.2528C47.5056 39.1514 47.6838 39.0354 47.8251 38.9041C47.9657 38.7727 48.0364 38.6283 48.0364 38.4701C48.0364 38.4156 48.0179 38.3695 47.9803 38.3326C47.9434 38.2957 47.8766 38.2773 47.7798 38.2773C47.5424 38.2773 47.3028 38.3464 47.0616 38.4855C46.8204 38.6237 46.6015 38.8012 46.4041 39.0162C46.2074 39.2305 46.0569 39.4571 45.9532 39.6945Z" fill="#3730A3"/>
<path d="M48.3149 42.6948C48.2558 42.6948 48.1981 42.6741 48.1421 42.6318C48.086 42.5896 48.0437 42.545 48.0138 42.4982C47.9838 42.4513 47.9692 42.4229 47.9692 42.4129C48.0729 42.1702 48.1751 41.9536 48.2757 41.7631C48.3763 41.5726 48.4762 41.3767 48.5768 41.1762C48.6767 40.9757 48.7758 40.7407 48.8718 40.4711C48.9686 40.2014 49.0684 39.8658 49.1729 39.4648C49.2766 39.0638 49.3811 38.5661 49.4848 37.9723C49.4924 37.9278 49.507 37.8955 49.5293 37.8755C49.5516 37.8556 49.6069 37.8456 49.696 37.8456C49.8888 37.8456 50.0263 37.8817 50.1085 37.9531C50.1899 38.0246 50.2306 38.1029 50.2306 38.1866C50.2306 38.2558 50.2084 38.3794 50.1638 38.5576C50.1192 38.7359 50.0563 38.9463 49.9748 39.189C50.1008 39.0254 50.259 38.8595 50.448 38.6913C50.637 38.5231 50.8544 38.3817 51.0994 38.2681C51.3444 38.1544 51.6117 38.0975 51.9013 38.0975C52.2278 38.0975 52.4974 38.1759 52.7086 38.331C52.9199 38.487 53.0259 38.6913 53.0259 38.944C53.0259 39.1368 52.9606 39.3411 52.8308 39.5562C52.7009 39.7713 52.5189 39.9749 52.2854 40.1653C52.0519 40.3558 51.7746 40.511 51.4558 40.6293C51.1363 40.7484 50.7837 40.8075 50.3981 40.8075C50.2045 40.8075 50.0493 40.7929 49.9303 40.763C49.8112 40.733 49.7521 40.7038 49.7521 40.6739C49.7521 40.6539 49.7797 40.6431 49.8358 40.6401C49.8919 40.6378 49.9564 40.6362 50.0309 40.6362C50.3282 40.6362 50.6116 40.5878 50.8828 40.491C51.1539 40.3943 51.3967 40.2667 51.6125 40.1085C51.8276 39.9503 51.9966 39.7744 52.1195 39.5816C52.2416 39.3888 52.3031 39.1983 52.3031 39.0101C52.3031 38.8518 52.2531 38.7166 52.1525 38.6053C52.0526 38.4939 51.8906 38.4386 51.6678 38.4386C51.475 38.4386 51.2837 38.4793 51.094 38.5607C50.9043 38.6421 50.7261 38.7466 50.5594 38.8726C50.3919 38.9986 50.2437 39.1299 50.1139 39.2659C49.9841 39.4018 49.8857 39.5247 49.8189 39.633C49.6852 40.004 49.5516 40.362 49.4179 40.7061C49.2843 41.0502 49.156 41.3621 49.0339 41.6417C48.911 41.9213 48.8004 42.1502 48.6997 42.3284C48.5999 42.5066 48.5162 42.6157 48.4493 42.6549C48.4109 42.6825 48.3664 42.6948 48.3149 42.6948Z" fill="#3730A3"/>
<path d="M57.0692 40.8083C56.7796 40.8083 56.5637 40.7476 56.4232 40.6263C56.2818 40.5049 56.2119 40.3574 56.2119 40.1846C56.2119 40.0709 56.2434 39.9273 56.3064 39.7537C56.3694 39.5808 56.4531 39.3988 56.5568 39.2083C56.6605 39.0178 56.7811 38.838 56.9186 38.6698C57.0561 38.5016 57.2028 38.3641 57.3587 38.2573C57.5147 38.1513 57.6668 38.0976 57.8158 38.0976C57.8826 38.0976 57.9402 38.1114 57.9886 38.1383C58.037 38.1652 58.0608 38.2066 58.0608 38.2604C58.0608 38.3196 58.0032 38.4163 57.888 38.55C57.7728 38.6836 57.6376 38.8373 57.4816 39.0101C57.3257 39.1837 57.1905 39.365 57.0753 39.5555C56.9601 39.746 56.9025 39.928 56.9025 40.1016C56.9025 40.2798 56.947 40.3989 57.0361 40.458C57.1252 40.5172 57.2627 40.5471 57.4486 40.5471C57.7013 40.5471 57.9702 40.4634 58.2559 40.2944C58.5417 40.1262 58.8443 39.832 59.1639 39.4111L59.2637 39.4856C59.0486 39.9111 58.7383 40.2383 58.3335 40.4657C57.9279 40.6946 57.507 40.8083 57.0692 40.8083ZM58.4049 37.4078C58.2859 37.4078 58.1806 37.3878 58.0877 37.3486C57.9948 37.3087 57.9487 37.2472 57.9487 37.1627C57.9487 37.059 58.0393 36.9684 58.2214 36.8916C58.4034 36.8148 58.5831 36.7764 58.7614 36.7764C58.8727 36.7764 58.9618 36.794 59.0287 36.8286C59.0955 36.8632 59.1285 36.9231 59.1285 37.0068C59.1285 37.1005 59.0525 37.1912 58.9004 37.278C58.7491 37.3648 58.5839 37.4078 58.4049 37.4078Z" fill="#3730A3"/>
<path d="M59.8971 40.9573C59.5776 40.9573 59.3326 40.8951 59.162 40.7714C58.9915 40.6477 58.9062 40.4649 58.9062 40.2222C58.9062 40.0048 58.9677 39.7359 59.0898 39.4164C59.212 39.0969 59.3664 38.7696 59.5523 38.4324C59.4777 38.4224 59.4078 38.414 59.341 38.4063C59.2742 38.3986 59.2112 38.3879 59.1521 38.3733V38.2396C59.2112 38.2442 59.2819 38.2496 59.3633 38.2542C59.4447 38.2588 59.5377 38.2642 59.6414 38.2688C59.7973 38.0015 59.9647 37.7426 60.1422 37.493C60.3204 37.2433 60.4971 37.0206 60.6714 36.8247C60.8458 36.6296 61.0132 36.4729 61.173 36.3569C61.3328 36.2409 61.468 36.1826 61.5794 36.1826C61.6385 36.1826 61.6923 36.1964 61.7407 36.2233C61.7891 36.2501 61.8129 36.2916 61.8129 36.3454C61.8129 36.4299 61.7353 36.5666 61.5794 36.7579C61.4234 36.9484 61.2306 37.175 61.0002 37.4369C60.7697 37.6996 60.547 37.9838 60.3319 38.2911C60.3987 38.2911 60.4671 38.2911 60.5378 38.2911C60.6084 38.2911 60.6768 38.2911 60.7436 38.2911C60.9887 38.2911 61.2468 38.2888 61.5179 38.2834C61.7891 38.2788 62.0618 38.2657 62.3367 38.2465V38.3802C61.9281 38.4101 61.5625 38.4324 61.2398 38.447C60.9172 38.4616 60.6292 38.4693 60.3765 38.4693C60.3465 38.4693 60.3189 38.4693 60.2927 38.4693C60.2666 38.4693 60.239 38.4693 60.209 38.4693C60.0385 38.732 59.8933 39.0016 59.775 39.2789C59.6559 39.5562 59.5968 39.8258 59.5968 40.0885C59.5968 40.3013 59.6452 40.4534 59.7412 40.5448C59.8372 40.6362 59.997 40.6823 60.2205 40.6823C60.6069 40.6823 60.9856 40.5686 61.3566 40.3405C61.7276 40.1131 62.0541 39.8035 62.3367 39.4126L62.4812 39.4871C62.3029 39.7644 62.0779 40.014 61.8075 40.2368C61.5363 40.4595 61.2375 40.6354 60.9111 40.7637C60.5839 40.8928 60.2466 40.9573 59.8971 40.9573Z" fill="#3730A3"/>
<path d="M66.2128 41.031C65.8564 41.031 65.5591 40.9519 65.3217 40.7937C65.0844 40.6354 64.9653 40.3981 64.9653 40.0808C64.9653 39.8335 65.0375 39.5923 65.1827 39.3565C65.3271 39.1214 65.5184 38.9102 65.7565 38.722C65.9939 38.5338 66.2573 38.384 66.5469 38.2726C66.8365 38.1613 67.1223 38.106 67.4049 38.106C67.7091 38.106 67.9173 38.1651 68.0287 38.2842C68.14 38.4032 68.1953 38.5269 68.1953 38.6552C68.1953 38.7988 68.1454 38.9248 68.0448 39.0339C67.9449 39.1429 67.809 39.1975 67.6384 39.1975C67.5125 39.1975 67.4049 39.1606 67.3151 39.0861C67.4264 39.0469 67.5232 38.9663 67.6046 38.8449C67.6861 38.7235 67.7275 38.6083 67.7275 38.4992C67.7275 38.4401 67.7106 38.394 67.6776 38.3617C67.6438 38.3295 67.5793 38.3134 67.4825 38.3134C67.282 38.3134 67.0762 38.3725 66.8642 38.4916C66.6529 38.6106 66.4555 38.7635 66.2742 38.9517C66.0922 39.1399 65.9439 39.338 65.8287 39.5454C65.7135 39.7536 65.6559 39.9487 65.6559 40.1323C65.6559 40.2859 65.712 40.4265 65.8233 40.5555C65.9347 40.6838 66.1498 40.7483 66.4693 40.7483C66.7666 40.7483 67.0654 40.6938 67.3658 40.5847C67.6661 40.4757 67.9465 40.3197 68.2069 40.1169C68.4665 39.9141 68.6747 39.676 68.8306 39.4041L68.975 39.4786C68.8045 39.7759 68.5702 40.0417 68.2737 40.2767C67.9764 40.5118 67.65 40.6961 67.2935 40.8298C66.9364 40.9642 66.5761 41.031 66.2128 41.031Z" fill="#3730A3"/>
<path d="M69.5429 40.8382C69.2233 40.8382 68.9952 40.7653 68.8577 40.6193C68.7202 40.4734 68.6519 40.2913 68.6519 40.0739C68.6519 39.8366 68.7187 39.5539 68.8523 39.2275C68.986 38.901 69.1627 38.5569 69.3816 38.1951C69.6005 37.8341 69.8402 37.4815 70.0998 37.1366C70.3594 36.7925 70.619 36.4798 70.8794 36.1972C71.1391 35.9153 71.3787 35.6894 71.5977 35.5212C71.8166 35.353 71.9894 35.2685 72.1154 35.2685C72.1968 35.2685 72.2636 35.2992 72.3159 35.3614C72.3681 35.4237 72.4088 35.4974 72.4388 35.5842C72.4679 35.671 72.4833 35.7486 72.4833 35.8177C72.4833 35.9514 72.4334 36.1257 72.3328 36.3416C72.2329 36.5567 72.0916 36.7971 71.9095 37.0621C71.7275 37.3271 71.5124 37.5944 71.2635 37.864C71.0146 38.1336 70.7435 38.3925 70.4508 38.6398C70.1574 38.8872 69.8478 39.1 69.5206 39.2782C69.4761 39.4118 69.4407 39.5416 69.4146 39.6684C69.3885 39.7943 69.3754 39.9149 69.3754 40.0286C69.3754 40.2214 69.4161 40.3651 69.4976 40.4595C69.579 40.5533 69.7019 40.6009 69.8655 40.6009C70.066 40.6009 70.2649 40.5417 70.4616 40.4227C70.6582 40.3036 70.8441 40.1538 71.0185 39.9733C71.1928 39.7928 71.3434 39.6062 71.4694 39.4126L71.6361 39.4717C71.3388 39.8927 71.0162 40.2253 70.6667 40.4703C70.3187 40.7161 69.9439 40.8382 69.5429 40.8382ZM69.6212 39.0262C69.8809 38.8526 70.1336 38.6537 70.3786 38.4286C70.6237 38.2035 70.8518 37.9693 71.0638 37.7273C71.2758 37.4846 71.4632 37.2495 71.6261 37.0221C71.7889 36.7948 71.9157 36.5905 72.0048 36.4099C72.0939 36.2294 72.1384 36.0896 72.1384 35.9905C72.1384 35.9414 72.1292 35.9091 72.1108 35.8938C72.0923 35.8792 72.0754 35.8715 72.0608 35.8715C72.0017 35.8715 71.8995 35.9345 71.7543 36.0604C71.6099 36.1864 71.441 36.3562 71.2474 36.5689C71.0546 36.7817 70.8579 37.0245 70.6575 37.2964C70.457 37.5683 70.2657 37.8533 70.0837 38.1505C69.9008 38.447 69.7472 38.7397 69.6212 39.0262Z" fill="#3730A3"/>
<path d="M71.7817 40.9642C71.5513 40.9642 71.3562 40.9135 71.1972 40.8121C71.0374 40.7107 70.9575 40.5563 70.9575 40.3481C70.9575 40.1699 71.0167 39.9779 71.1357 39.7728C71.254 39.5677 71.4176 39.3642 71.6258 39.1637C71.834 38.9632 72.0698 38.7804 72.3333 38.6145C72.5967 38.4485 72.8748 38.3164 73.169 38.2173C73.4624 38.1183 73.7535 38.0691 74.0431 38.0691C74.3327 38.0691 74.5739 38.1198 74.7667 38.2212C74.9595 38.3226 75.0563 38.4578 75.0563 38.626C75.0563 38.7497 75.0064 38.8342 74.9057 38.8787C74.8051 38.9233 74.6738 38.9455 74.5101 38.9455C74.5247 38.9056 74.5378 38.8626 74.5493 38.8157C74.5608 38.7689 74.5662 38.7258 74.5662 38.6859C74.5662 38.5722 74.5255 38.4747 74.4441 38.3925C74.3619 38.3111 74.2213 38.2703 74.0208 38.2703C73.8127 38.2703 73.6014 38.3187 73.3856 38.4148C73.1705 38.5115 72.9624 38.6398 72.7619 38.8011C72.5614 38.9624 72.3832 39.1368 72.2272 39.325C72.0713 39.5132 71.9492 39.6991 71.8593 39.8819C71.7702 40.0647 71.7257 40.2283 71.7257 40.372C71.7257 40.5648 71.8255 40.6615 72.0268 40.6615C72.1973 40.6615 72.3832 40.6085 72.5837 40.5018C72.7841 40.3958 72.99 40.259 73.202 40.0931C73.4132 39.9272 73.616 39.7551 73.8088 39.5769C74.0016 39.3987 74.1729 39.2351 74.3212 39.0869C74.3504 39.0569 74.3696 39.0423 74.3765 39.0423C74.421 39.0469 74.4786 39.0569 74.5493 39.0723C74.62 39.0869 74.6814 39.1068 74.7329 39.1314C74.7851 39.156 74.8113 39.1883 74.8113 39.2282C74.8113 39.2728 74.7775 39.3334 74.7106 39.4103C74.6438 39.4871 74.5693 39.5746 74.4879 39.6737C74.4057 39.7728 74.3319 39.8734 74.2651 39.9748C74.1983 40.0762 74.1653 40.1715 74.1653 40.2606C74.1653 40.3351 74.1944 40.4081 74.2544 40.4795C74.3135 40.5517 74.4103 40.587 74.5439 40.587C74.7444 40.587 75.0079 40.4895 75.3344 40.2936C75.6608 40.0985 75.9919 39.8051 76.326 39.4133L76.4374 39.4878C76.2815 39.7551 76.081 39.9902 75.8359 40.193C75.5909 40.3958 75.329 40.5548 75.0509 40.6685C74.7728 40.7821 74.4994 40.839 74.2321 40.839C73.9571 40.839 73.7551 40.7844 73.6253 40.6754C73.4954 40.5663 73.4301 40.448 73.4301 40.319C73.4301 40.289 73.434 40.256 73.4417 40.2191C73.4486 40.1822 73.4563 40.1438 73.4639 40.1039C73.1444 40.3912 72.8533 40.6062 72.5898 40.7499C72.3256 40.8928 72.056 40.9642 71.7817 40.9642Z" fill="#3730A3"/>
<path d="M77.2725 40.9941C76.9238 40.9941 76.6473 40.9434 76.4429 40.8421C76.2386 40.7407 76.0942 40.6155 76.0082 40.4672C75.9229 40.319 75.8799 40.1699 75.8799 40.0217C75.8799 39.8734 75.9098 39.759 75.969 39.6799C76.0289 39.6007 76.1011 39.5416 76.1864 39.5017C76.2716 39.4617 76.3531 39.4325 76.4314 39.4126C76.5098 39.3926 76.5628 39.3726 76.5927 39.3534C76.8155 39.1898 77.0198 39.0193 77.2057 38.8411C77.3916 38.6629 77.5544 38.4747 77.6958 38.2765V38.1874C77.6958 38.0046 77.7418 37.874 77.8348 37.7972C77.9277 37.7204 78.026 37.6819 78.1297 37.6819C78.1889 37.6819 78.2334 37.6919 78.2634 37.7119C78.2934 37.7319 78.308 37.7542 78.308 37.7787C78.308 37.8033 78.2972 37.8433 78.2749 37.8978C78.2527 37.9523 78.2411 38.0215 78.2411 38.106C78.2411 38.2696 78.2895 38.4462 78.3855 38.6367C78.4823 38.8272 78.5783 39.0277 78.6751 39.2382C78.7711 39.4487 78.8195 39.6676 78.8195 39.8949C78.8195 39.9595 78.8142 40.0225 78.8026 40.0839C78.7919 40.1461 78.775 40.2037 78.7527 40.2583C79.0123 40.2283 79.2574 40.1507 79.4878 40.0248C79.7182 39.8988 79.941 39.6968 80.1561 39.4195L80.2559 39.494C80.1146 39.7659 79.9034 39.9725 79.6215 40.1139C79.3396 40.2552 79.0308 40.3428 78.6966 40.3773C78.5776 40.5901 78.3901 40.746 78.1344 40.8451C77.8793 40.945 77.5913 40.9941 77.2725 40.9941ZM77.2948 40.7345C77.3839 40.7345 77.503 40.7145 77.6512 40.6754C77.7995 40.6354 77.9147 40.534 77.9969 40.3712C77.685 40.332 77.4085 40.2498 77.1673 40.1262C76.9261 40.0025 76.7456 39.8788 76.6273 39.7551C76.4637 39.7605 76.3822 39.8465 76.3822 40.0148C76.3822 40.193 76.4621 40.3574 76.6219 40.5087C76.7801 40.6585 77.0052 40.7345 77.2948 40.7345ZM78.0522 40.2514C78.0668 40.2022 78.0783 40.15 78.0852 40.0954C78.0929 40.0409 78.0967 39.9764 78.0967 39.9026C78.0967 39.6699 78.0537 39.4387 77.9684 39.2082C77.8832 38.9778 77.811 38.7612 77.7511 38.5584C77.5805 38.7466 77.4 38.9263 77.2111 39.0969C77.0221 39.2674 76.8416 39.4103 76.6711 39.5239C76.7824 39.6822 76.9553 39.8312 77.1888 39.9695C77.4231 40.1085 77.7103 40.2022 78.0522 40.2514Z" fill="#3730A3"/>
<path d="M81.1143 40.9941C80.7656 40.9941 80.489 40.9434 80.2847 40.8421C80.0804 40.7407 79.936 40.6155 79.85 40.4672C79.7647 40.319 79.7217 40.1699 79.7217 40.0217C79.7217 39.8734 79.7516 39.759 79.8108 39.6799C79.8707 39.6007 79.9429 39.5416 80.0282 39.5017C80.1134 39.4617 80.1949 39.4325 80.2732 39.4126C80.3515 39.3926 80.4045 39.3726 80.4345 39.3534C80.6573 39.1898 80.8616 39.0193 81.0475 38.8411C81.2334 38.6629 81.3962 38.4747 81.5376 38.2765V38.1874C81.5376 38.0046 81.5836 37.874 81.6766 37.7972C81.7695 37.7204 81.8678 37.6819 81.9715 37.6819C82.0307 37.6819 82.0752 37.6919 82.1052 37.7119C82.1352 37.7319 82.1498 37.7542 82.1498 37.7787C82.1498 37.8033 82.139 37.8433 82.1167 37.8978C82.0944 37.9523 82.0829 38.0215 82.0829 38.106C82.0829 38.2696 82.1313 38.4462 82.2273 38.6367C82.3241 38.8272 82.4201 39.0277 82.5169 39.2382C82.6129 39.4487 82.6613 39.6676 82.6613 39.8949C82.6613 39.9595 82.6559 40.0225 82.6444 40.0839C82.6337 40.1461 82.6168 40.2037 82.5945 40.2583C82.8541 40.2283 83.0992 40.1507 83.3296 40.0248C83.56 39.8988 83.7828 39.6968 83.9979 39.4195L84.0977 39.494C83.9564 39.7659 83.7452 39.9725 83.4633 40.1139C83.1814 40.2552 82.8726 40.3428 82.5384 40.3773C82.4194 40.5901 82.2319 40.746 81.9762 40.8451C81.7219 40.945 81.4339 40.9941 81.1143 40.9941ZM81.1366 40.7345C81.2257 40.7345 81.3447 40.7145 81.493 40.6754C81.6412 40.6354 81.7565 40.534 81.8387 40.3712C81.5268 40.332 81.2503 40.2498 81.0091 40.1262C80.7679 40.0025 80.5874 39.8788 80.4691 39.7551C80.3055 39.7605 80.224 39.8465 80.224 40.0148C80.224 40.193 80.3039 40.3574 80.4637 40.5087C80.6227 40.6585 80.847 40.7345 81.1366 40.7345ZM81.894 40.2514C81.9086 40.2022 81.9201 40.15 81.927 40.0954C81.9347 40.0409 81.9385 39.9764 81.9385 39.9026C81.9385 39.6699 81.8955 39.4387 81.8102 39.2082C81.725 38.9778 81.6528 38.7612 81.5929 38.5584C81.4223 38.7466 81.2418 38.9263 81.0529 39.0969C80.8639 39.2674 80.6834 39.4103 80.5129 39.5239C80.6242 39.6822 80.7971 39.8312 81.0306 39.9695C81.2649 40.1085 81.5529 40.2022 81.894 40.2514Z" fill="#3730A3"/>
<path d="M84.267 42.6948C84.0811 42.6948 83.9183 42.6618 83.7769 42.595C83.6356 42.5281 83.5649 42.4306 83.5649 42.3015C83.5649 42.1433 83.6249 42.002 83.7431 41.8783C83.8614 41.7546 84.0212 41.6409 84.2225 41.5365C84.4229 41.4328 84.6526 41.3337 84.913 41.2392C85.1726 41.1455 85.4438 41.051 85.7257 40.9573C85.8294 40.7745 85.9354 40.5702 86.0429 40.3451C86.1505 40.12 86.2526 39.8712 86.3494 39.5992C86.1121 39.8566 85.8578 40.0778 85.5867 40.2637C85.3155 40.4496 85.0275 40.5417 84.7233 40.5417C84.5819 40.5417 84.4429 40.521 84.3054 40.4788C84.1679 40.4365 84.055 40.3712 83.9659 40.2821C83.8768 40.193 83.8323 40.0793 83.8323 39.9403C83.8323 39.802 83.8676 39.6407 83.9383 39.4579C84.0089 39.2751 84.0957 39.0969 84.2002 38.9233C84.3039 38.7505 84.4114 38.6068 84.5236 38.4924C84.6357 38.3779 84.7317 38.3218 84.8132 38.3218C84.8431 38.3218 84.8969 38.3295 84.9745 38.3441C85.0528 38.3587 85.1266 38.3802 85.1972 38.4071C85.2679 38.4348 85.3032 38.4632 85.3032 38.4924C85.2364 38.5569 85.1619 38.6483 85.0805 38.7674C84.9983 38.8864 84.9192 39.0185 84.8408 39.1645C84.7632 39.3104 84.6979 39.4525 84.6457 39.5916C84.5935 39.7298 84.5681 39.8489 84.5681 39.948C84.5681 40.0371 84.5973 40.1085 84.6572 40.1631C84.7164 40.2176 84.8208 40.2445 84.9691 40.2445C85.1097 40.2445 85.2679 40.1992 85.4423 40.107C85.6166 40.0156 85.791 39.8981 85.9661 39.7544C86.1405 39.6108 86.3018 39.4571 86.4508 39.2943C86.4731 39.2398 86.4931 39.1845 86.5123 39.1276C86.5307 39.0708 86.5476 39.0124 86.5622 38.9532C86.5845 38.8841 86.6382 38.8035 86.7235 38.7121C86.8088 38.6206 86.9447 38.5746 87.1298 38.5746C87.1667 38.5746 87.2036 38.5761 87.2412 38.5784C87.2781 38.5807 87.3188 38.5868 87.3634 38.5968C87.3634 38.6759 87.328 38.8234 87.2574 39.0385C87.1867 39.2536 87.0861 39.5055 86.9562 39.792C86.8264 40.0793 86.672 40.3735 86.4938 40.6754C86.8426 40.5863 87.1844 40.4388 87.5185 40.2337C87.8527 40.0286 88.1238 39.7544 88.3312 39.4134L88.4756 39.4879C88.3642 39.7252 88.1953 39.9318 87.9687 40.1078C87.7421 40.2837 87.4878 40.4342 87.2059 40.561C86.924 40.6869 86.6452 40.7922 86.3702 40.8767C86.1774 41.1931 85.9677 41.4904 85.7411 41.7677C85.5145 42.045 85.2771 42.2693 85.0282 42.4398C84.7809 42.6096 84.5266 42.6948 84.267 42.6948ZM84.2109 42.4567C84.3223 42.4567 84.5097 42.3592 84.7732 42.1633C85.0367 41.9674 85.3171 41.6248 85.6143 41.1347C85.3101 41.2438 85.0275 41.3514 84.7678 41.4581C84.5082 41.5641 84.3 41.6794 84.1441 41.8038C83.9882 41.9275 83.9106 42.0711 83.9106 42.2347C83.9106 42.2747 83.9329 42.3215 83.9774 42.3761C84.022 42.4298 84.0996 42.4567 84.2109 42.4567Z" fill="#3730A3"/>
<path d="M88.5654 40.69C88.4686 40.69 88.3857 40.6738 88.315 40.6416C88.2443 40.6093 88.209 40.5586 88.209 40.4895C88.209 40.4349 88.242 40.3842 88.3088 40.3374C88.3757 40.2905 88.4594 40.2529 88.5592 40.226C88.6591 40.1991 88.7574 40.1853 88.8542 40.1853C88.9433 40.1853 89.014 40.1976 89.0655 40.2222C89.1169 40.2468 89.143 40.2944 89.143 40.3635C89.143 40.4134 89.1154 40.4626 89.0593 40.5118C89.0032 40.5609 88.931 40.6032 88.8419 40.6377C88.7528 40.6723 88.6622 40.69 88.5654 40.69Z" fill="#3730A3"/>
</svg>
